<?xml version="1.0" standalone="no"?>
<!DOCTYPE svg PUBLIC "-//W3C//DTD SVG 20010904//EN"
 "http://www.w3.org/TR/2001/REC-SVG-20010904/DTD/svg10.dtd">
<svg version="1.0" xmlns="http://www.w3.org/2000/svg"
 width="700.000000pt" height="700.000000pt" viewBox="0 0 700.000000 700.000000"
 preserveAspectRatio="xMidYMid meet">
<metadata>
Created by potrace 1.14, written by Peter Selinger 2001-2017
</metadata>
<g transform="translate(0.000000,700.000000) scale(0.100000,-0.100000)"
fill="#000000" stroke="none">
<path d="M562 6108 c-17 -17 -17 -4599 0 -4616 9 -9 144 -12 545 -12 l533 0 0
-310 c0 -297 1 -311 20 -330 20 -20 33 -20 1895 -20 1862 0 1875 0 1895 20 20
20 20 33 20 1372 l0 1352 504 501 c308 307 514 520 531 549 37 63 45 160 20
237 -16 49 -40 76 -237 275 -243 246 -281 273 -383 282 -112 9 -150 -11 -302
-161 l-133 -130 0 156 c0 144 -2 159 -20 177 -19 19 -33 20 -550 20 l-530 0 0
313 c0 230 -3 316 -12 325 -17 17 -3779 17 -3796 0z m3706 -365 l2 -273 -1295
0 c-1282 0 -1295 0 -1315 -20 -16 -16 -20 -33 -20 -85 l0 -65 -211 0 c-241 0
-262 -5 -307 -73 l-27 -40 -3 -271 c-4 -306 0 -362 31 -407 49 -72 55 -74 298
-77 l219 -3 0 -109 0 -109 -219 -3 c-243 -3 -249 -5 -298 -77 -31 -45 -35
-101 -31 -401 3 -246 5 -268 24 -305 12 -24 37 -49 60 -62 37 -22 50 -23 252
-23 l212 0 0 -140 0 -140 -212 0 c-198 0 -215 -2 -247 -21 -83 -51 -91 -86
-91 -414 0 -277 7 -337 47 -379 47 -51 74 -56 298 -56 l205 0 0 -298 0 -299
-167 -6 c-91 -4 -312 -7 -490 -7 l-323 0 0 2220 0 2220 1803 -2 1802 -3 3
-272z m1092 -560 l0 -178 -1038 -1040 -1038 -1040 -94 -273 -94 -272 -25 26
c-47 51 -66 54 -393 54 -285 0 -304 -1 -344 -21 -26 -12 -53 -36 -66 -57 -23
-37 -23 -41 -23 -357 0 -355 1 -359 67 -407 33 -23 33 -23 368 -23 335 0 335
0 368 23 43 31 62 70 69 145 l6 63 366 128 c201 70 412 144 469 164 l104 37
649 650 649 650 0 -1262 0 -1263 -1805 0 -1805 0 0 2215 0 2215 1805 0 1805 0
0 -177z m593 101 c38 -19 442 -417 463 -456 8 -15 14 -49 14 -76 0 -62 -31
-111 -136 -214 l-79 -78 -310 310 -310 310 95 96 c52 53 109 102 125 110 41
18 99 17 138 -2z m-4313 -419 l0 -325 -200 0 c-187 0 -201 1 -220 20 -19 19
-20 33 -20 303 0 240 2 286 16 305 15 22 20 22 220 22 l204 0 0 -325z m4395
-595 l-105 -105 -312 312 -313 313 105 105 105 105 312 -312 313 -313 -105
-105z m-595 235 l205 -205 -648 -648 c-356 -356 -647 -654 -647 -662 0 -9 7
-26 16 -38 38 -54 27 -64 714 623 l645 645 63 -63 62 -62 -923 -923 -922 -922
-310 -109 -310 -110 -107 107 c-60 59 -108 112 -108 118 0 7 47 146 105 310
l104 298 923 923 c508 508 925 923 928 923 3 0 97 -92 210 -205z m-3800 -730
l0 -325 -204 0 c-200 0 -205 0 -220 22 -24 33 -24 573 0 606 15 22 20 22 220
22 l204 0 0 -325z m0 -1150 l0 -325 -204 0 c-200 0 -205 0 -220 22 -24 33 -24
573 0 606 15 22 20 22 220 22 l204 0 0 -325z m1354 -297 c11 -16 16 -46 16
-104 0 -74 -6 -98 -55 -240 -31 -87 -53 -165 -49 -176 8 -26 40 -40 75 -33 24
5 29 3 29 -12 0 -10 -7 -29 -16 -41 -15 -22 -17 -22 -311 -22 -262 0 -299 2
-315 17 -17 15 -18 38 -18 302 0 243 2 290 16 309 15 22 16 22 314 22 298 0
299 0 314 -22z"/>
<path d="M2362 4643 c-36 -7 -99 -73 -111 -118 -7 -25 -11 -145 -11 -320 1
-292 6 -332 47 -377 47 -52 55 -53 393 -53 297 0 317 1 349 20 44 26 70 62 81
111 5 21 9 163 9 314 0 339 -7 367 -104 411 -36 17 -68 18 -335 17 -162 0
-305 -3 -318 -5z m628 -123 c19 -19 20 -33 20 -308 0 -233 -3 -292 -14 -308
-14 -18 -31 -19 -310 -22 -286 -3 -296 -2 -316 18 -19 19 -20 31 -20 310 0
277 1 291 20 310 19 19 33 20 310 20 277 0 291 -1 310 -20z"/>
<path d="M2780 4250 l-145 -151 -40 41 c-59 61 -110 93 -134 85 -27 -8 -44
-40 -36 -65 10 -30 186 -190 210 -190 13 0 81 61 193 173 137 137 172 178 172
199 0 28 -31 58 -60 58 -8 0 -80 -67 -160 -150z"/>
<path d="M2335 3536 c-39 -17 -64 -46 -81 -93 -15 -45 -20 -572 -5 -637 5 -21
22 -52 38 -68 52 -56 65 -58 393 -58 330 0 345 2 393 59 44 53 49 90 45 400
-3 243 -5 290 -20 316 -21 39 -56 71 -91 84 -44 17 -634 14 -672 -3z m656
-113 c11 -12 15 -77 17 -301 2 -245 1 -287 -13 -308 l-15 -24 -300 0 c-298 0
-299 0 -314 22 -24 34 -24 589 0 612 13 14 56 16 313 16 265 0 300 -2 312 -17z"/>
<path d="M2780 3144 l-147 -146 -66 61 c-69 65 -101 75 -130 43 -10 -10 -17
-27 -17 -37 0 -9 42 -57 93 -106 73 -70 98 -88 122 -89 26 0 54 24 198 168
133 133 167 173 167 194 0 27 -31 58 -59 58 -8 0 -81 -66 -161 -146z"/>
<path d="M3958 2613 c-97 -98 -177 -185 -178 -193 -7 -54 23 -80 69 -60 42 17
371 352 371 377 0 29 -26 53 -58 53 -22 0 -62 -35 -204 -177z"/>
</g>
</svg>
